<?xml version="1.0" encoding="UTF-8" standalone="no"?>
<!-- Created with Inkscape (http://www.inkscape.org/) -->

<svg
   xmlns:dc="http://purl.org/dc/elements/1.1/"
   xmlns:cc="http://creativecommons.org/ns#"
   xmlns:rdf="http://www.w3.org/1999/02/22-rdf-syntax-ns#"
   xmlns:svg="http://www.w3.org/2000/svg"
   xmlns="http://www.w3.org/2000/svg"
   xmlns:sodipodi="http://sodipodi.sourceforge.net/DTD/sodipodi-0.dtd"
   xmlns:inkscape="http://www.inkscape.org/namespaces/inkscape"
   width="219.8356mm"
   height="42.15658mm"
   viewBox="0 0 778.9453 149.3737"
   id="svg4187"
   version="1.1"
   inkscape:version="0.91 r13725"
   sodipodi:docname="V4. Logo, no background.svg">
  <defs
     id="defs4189" />
  <sodipodi:namedview
     id="base"
     pagecolor="#ffffff"
     bordercolor="#666666"
     borderopacity="1.0"
     inkscape:pageopacity="0.0"
     inkscape:pageshadow="2"
     inkscape:zoom="0.35"
     inkscape:cx="375"
     inkscape:cy="520"
     inkscape:document-units="px"
     inkscape:current-layer="layer1"
     showgrid="false"
     fit-margin-top="0"
     fit-margin-left="0"
     fit-margin-right="0"
     fit-margin-bottom="0" />
  <metadata
     id="metadata4192">
    <rdf:RDF>
      <cc:Work
         rdf:about="">
        <dc:format>image/svg+xml</dc:format>
        <dc:type
           rdf:resource="http://purl.org/dc/dcmitype/StillImage" />
        <dc:title></dc:title>
      </cc:Work>
    </rdf:RDF>
  </metadata>
  <g
     inkscape:label="Layer 1"
     inkscape:groupmode="layer"
     id="layer1"
     transform="translate(-50.52798,-3.38987)">
    <g
       id="g3041"
       transform="matrix(1.09291,0,0,1.092964,-474.2886,-263.6603)"
       style="fill:#000000">
      <path
         inkscape:export-ydpi="180.31598"
         inkscape:export-xdpi="180.31598"
         inkscape:export-filename="C:\Zdjęcia\2014\01.31 - cmentarz żydowski w Katowicach\sprzątanko\levels\logo.png"
         d="m 480.2011,244.3358 0,105.5937 7.2407,0 0,-36.5052 39.9747,36.5052 9.3527,0 0,-0.4527 -42.0867,-38.9187 37.7119,-34.8459 0,-0.3017 -9.8052,0 -35.1474,32.583 0,-63.6578 z"
         style="font-style:normal;font-variant:normal;font-weight:normal;font-stretch:normal;font-size:12px;line-height:125%;font-family:'Nexa Light';-inkscape-font-specification:'Nexa Light';letter-spacing:0px;word-spacing:0px;fill:#000000;fill-opacity:1;stroke:none"
         id="path3233"
         inkscape:connector-curvature="0" />
      <path
         inkscape:export-ydpi="180.31598"
         inkscape:export-xdpi="180.31598"
         inkscape:export-filename="C:\Zdjęcia\2014\01.31 - cmentarz żydowski w Katowicach\sprzątanko\levels\logo.png"
         d="m 546.1981,275.4106 0,74.5189 7.3914,0 0,-43.4444 c 0.1565,-6.967 2.5204,-12.7936 7.0898,-17.4794 4.5693,-4.6857 10.4023,-7.1557 17.4983,-7.4104 2.1968,-0.01 4.3651,0.2701 6.5053,0.8297 2.1402,0.5593 4.1954,1.4393 6.1658,2.6399 l 3.3189,-6.0341 c -2.4953,-1.5115 -5.0848,-2.6366 -7.7688,-3.3751 -2.6836,-0.7392 -5.4241,-1.0723 -8.2212,-0.9994 -4.8963,-0.05 -9.6226,1.0271 -14.1797,3.2243 -4.5568,2.1969 -8.0765,5.7983 -10.5594,10.8045 l -0.3013,-13.2745 z"
         style="font-style:normal;font-variant:normal;font-weight:normal;font-stretch:normal;font-size:12px;line-height:125%;font-family:'Nexa Light';-inkscape-font-specification:'Nexa Light';letter-spacing:0px;word-spacing:0px;fill:#000000;fill-opacity:1;stroke:none"
         id="path3235"
         inkscape:connector-curvature="0" />
      <path
         inkscape:export-ydpi="180.31598"
         inkscape:export-xdpi="180.31598"
         inkscape:export-filename="C:\Zdjęcia\2014\01.31 - cmentarz żydowski w Katowicach\sprzątanko\levels\logo.png"
         d="m 603.1556,282.0478 45.1035,0 -47.517,65.3172 0,2.5645 58.5291,0 0,-6.939 -47.0646,0 47.0646,-64.7139 0,-2.866 -56.1156,0 z"
         style="font-style:normal;font-variant:normal;font-weight:normal;font-stretch:normal;font-size:12px;line-height:125%;font-family:'Nexa Light';-inkscape-font-specification:'Nexa Light';letter-spacing:0px;word-spacing:0px;fill:#000000;fill-opacity:1;stroke:none"
         id="path3237"
         inkscape:connector-curvature="0" />
      <path
         inkscape:export-ydpi="180.31598"
         inkscape:export-xdpi="180.31598"
         inkscape:export-filename="C:\Zdjęcia\2014\01.31 - cmentarz żydowski w Katowicach\sprzątanko\levels\logo.png"
         d="m 730.3192,275.4106 -18.7052,43.8967 -8.5983,21.7221 -8.7493,-21.5712 -17.3477,-44.0476 -7.9948,0 29.8679,73.6138 -13.7272,31.9798 7.8442,0 45.4053,-105.5936 z"
         style="font-style:normal;font-variant:normal;font-weight:normal;font-stretch:normal;font-size:12px;line-height:125%;font-family:'Nexa Light';-inkscape-font-specification:'Nexa Light';letter-spacing:0px;word-spacing:0px;fill:#000000;fill-opacity:1;stroke:none"
         id="path3239"
         inkscape:connector-curvature="0" />
      <path
         inkscape:export-ydpi="180.31598"
         inkscape:export-xdpi="180.31598"
         inkscape:export-filename="C:\Zdjęcia\2014\01.31 - cmentarz żydowski w Katowicach\sprzątanko\levels\logo.png"
         d="m 808.3956,284.1598 c -3.7113,-3.4506 -7.9036,-5.9774 -12.5767,-7.5803 -4.6734,-1.6026 -9.7329,-2.3946 -15.1793,-2.3757 -7.8407,-0.1129 -14.6731,1.5085 -20.4965,4.8648 -5.8234,3.3564 -8.8463,8.6739 -9.0698,15.9522 0.368,7.2187 3.4037,12.1276 9.1077,14.7265 5.7039,2.599 12.3224,4.3778 19.8555,5.3363 6.3762,0.8045 11.9891,2.1748 16.8383,4.1106 4.8491,1.9359 7.3317,5.4934 7.448,10.6725 -0.6003,5.7386 -3.3971,9.5725 -8.391,11.5022 -4.9936,1.9296 -9.9403,2.8221 -14.8395,2.6775 -5.107,0.024 -10.1288,-0.9717 -15.0661,-2.9981 -4.937,-2.027 -9.0163,-5.2513 -12.2374,-9.6731 l -5.4304,4.827 c 3.3749,4.9781 7.9758,8.7116 13.8024,11.2005 5.8265,2.489 12.0867,3.7336 18.7805,3.7336 6.9894,0.1596 13.677,-1.2546 20.0628,-4.2427 6.3859,-2.9886 9.9057,-8.5135 10.5594,-16.5744 0.1016,-5.6893 -1.4611,-9.982 -4.6929,-12.8779 -3.2321,-2.896 -7.2436,-4.9538 -12.0343,-6.1737 -4.791,-1.2194 -9.473,-2.1602 -14.0457,-2.8213 -5.0157,-0.6689 -9.9184,-1.895 -14.7078,-3.6769 -4.7894,-1.7819 -7.4292,-5.0817 -7.9195,-9.8994 0.078,-4.7391 2.335,-8.2338 6.7693,-10.484 4.4342,-2.2502 9.6701,-3.3312 15.707,-3.2433 4.1263,-0.087 8.0925,0.3898 11.8982,1.4331 3.8058,1.0434 7.5831,3.1804 11.3326,6.411 z"
         style="font-style:normal;font-variant:normal;font-weight:normal;font-stretch:normal;font-size:12px;line-height:125%;font-family:'Nexa Light';-inkscape-font-specification:'Nexa Light';letter-spacing:0px;word-spacing:0px;fill:#000000;fill-opacity:1;stroke:none"
         id="path3241"
         inkscape:connector-curvature="0" />
      <path
         inkscape:export-ydpi="180.31598"
         inkscape:export-xdpi="180.31598"
         inkscape:export-filename="C:\Zdjęcia\2014\01.31 - cmentarz żydowski w Katowicach\sprzątanko\levels\logo.png"
         d="m 835.2548,275.1089 0,74.8206 -7.3917,0 0,-74.8206 z m -9.5035,-23.9849 c 0.1462,2.6148 1.1772,4.3579 3.0897,5.2294 1.9125,0.8712 3.8251,0.8712 5.7376,0 1.9128,-0.8711 2.9426,-2.6146 3.0897,-5.2294 -0.1463,-2.6146 -1.1769,-4.3577 -3.0897,-5.2293 -1.9125,-0.8713 -3.8251,-0.8713 -5.7376,0 -1.9128,0.8711 -2.9426,2.6147 -3.0897,5.2293 z"
         style="font-style:normal;font-variant:normal;font-weight:normal;font-stretch:normal;font-size:12px;line-height:125%;font-family:'Nexa Light';-inkscape-font-specification:'Nexa Light';letter-spacing:0px;word-spacing:0px;fill:#000000;fill-opacity:1;stroke:none"
         id="path3243"
         inkscape:connector-curvature="0" />
      <path
         inkscape:export-ydpi="180.31598"
         inkscape:export-xdpi="180.31598"
         inkscape:export-filename="C:\Zdjęcia\2014\01.31 - cmentarz żydowski w Katowicach\sprzątanko\levels\logo.png"
         d="m 923.7205,349.9295 0,-74.6698 -7.3917,0 0,41.4831 c -0.1252,7.8537 -2.5519,14.2835 -7.2782,19.2898 -4.7269,5.0063 -10.9996,7.6273 -18.8184,7.863 -8.1678,0.05 -14.6103,-2.1213 -19.3275,-6.5054 -4.7172,-4.384 -7.1244,-10.8138 -7.2216,-19.2897 l 0,-42.8408 -7.3917,0 0,42.9916 c 0.1565,10.4117 3.2745,18.4758 9.3527,24.1924 6.0776,5.7164 14.1732,8.614 24.2863,8.6926 5.3016,-0.037 10.3111,-1.2093 15.0283,-3.5261 4.7172,-2.3162 8.5574,-6.0182 11.5211,-11.1062 l 0,13.4255 z"
         style="font-style:normal;font-variant:normal;font-weight:normal;font-stretch:normal;font-size:12px;line-height:125%;font-family:'Nexa Light';-inkscape-font-specification:'Nexa Light';letter-spacing:0px;word-spacing:0px;fill:#000000;fill-opacity:1;stroke:none"
         id="path3245"
         inkscape:connector-curvature="0" />
      <path
         inkscape:export-ydpi="180.31598"
         inkscape:export-xdpi="180.31598"
         inkscape:export-filename="C:\Zdjęcia\2014\01.31 - cmentarz żydowski w Katowicach\sprzątanko\levels\logo.png"
         d="m 940.1969,345.404 c 0.1462,2.6147 1.1772,4.3579 3.0897,5.2294 1.9125,0.8712 3.8251,0.8712 5.7378,0 1.9126,-0.8711 2.9424,-2.6147 3.0895,-5.2294 -0.1463,-2.6146 -1.1769,-4.3578 -3.0895,-5.2294 -1.9127,-0.8711 -3.8253,-0.8711 -5.7378,0 -1.9125,0.8711 -2.9426,2.6148 -3.0897,5.2294 z"
         style="font-style:normal;font-variant:normal;font-weight:normal;font-stretch:normal;font-size:12px;line-height:125%;font-family:'Nexa Light';-inkscape-font-specification:'Nexa Light';letter-spacing:0px;word-spacing:0px;fill:#000000;fill-opacity:1;stroke:none"
         id="path3247"
         inkscape:connector-curvature="0" />
      <path
         inkscape:export-ydpi="180.31598"
         inkscape:export-xdpi="180.31598"
         inkscape:export-filename="C:\Zdjęcia\2014\01.31 - cmentarz żydowski w Katowicach\sprzątanko\levels\logo.png"
         sodipodi:nodetypes="ccccssccccccssscccccccccccccccsccccsssss"
         inkscape:connector-curvature="0"
         id="path3249"
         d="m 972.3086,268.4187 c -1.7115,-2.8776 -3.7677,-5.3191 -6.112,-7.0898 -1.4069,-3.8703 -4.1188,-7.6187 -7.9047,-9.6161 -0.5333,-0.2815 -1.1972,-0.409 -1.7112,-0.5705 -0.2427,-0.076 -0.5012,-0.042 -0.7336,0 l -10e-4,0 c -0.232,0.042 -0.4342,0.091 -0.6519,0.163 -0.2502,0.082 -0.5038,0.2873 -0.652,0.5705 -0.1486,0.2835 -0.2138,0.6275 -0.1616,0.8964 0.1016,0.5373 0.406,0.9834 0.8965,1.3854 1.4588,1.1957 2.511,2.7758 3.4224,4.1561 -0.3308,-0.034 -0.6394,-0.072 -0.9779,-0.081 -0.8723,-0.024 -1.7694,0.024 -2.6891,0.163 -2.9929,0.4557 -5.2007,1.2896 -6.6824,2.4448 -1.4817,1.1552 -2.0027,2.4729 -1.9558,3.9117 0.047,1.4388 0.8681,3.0153 2.2818,3.6671 1.4137,0.6523 3.3301,0.5795 5.5415,0 3.4532,-0.8488 5.9402,-0.3144 8.2309,1.1409 2.2899,1.456 4.0897,3.888 5.5415,6.7639 2.7178,5.3853 3.9492,12.4696 4.2376,17.3579 l 0,54.9261 7.0081,0 0,-39.4425 c 0.1201,-7.4729 2.4304,-13.6536 6.927,-18.4173 4.4965,-4.7635 10.4083,-7.1914 17.8463,-7.4158 7.771,-0.048 13.93,2.022 18.418,6.1934 4.488,4.1717 6.753,10.271 6.845,18.3358 l 0,40.7464 7.09,0 0,-40.9093 c -0.148,-9.907 -3.1,-17.5414 -8.883,-22.9809 -5.782,-5.4395 -13.522,-8.2375 -23.144,-8.3123 -5.043,0.035 -9.773,1.1368 -14.2607,3.3412 -4.7782,3.0001 -8.8958,6.7528 -11.2663,10.6959 -0.791,-8.4241 -2.9989,-16.1378 -6.4991,-22.0234 z m -17.7667,-8.3122 c 1.7681,0 3.2597,1.4642 3.2597,3.2597 0,1.7957 -1.4916,3.2597 -3.2597,3.2597 -1.768,0 -3.178,-1.464 -3.178,-3.2597 0,-1.7955 1.41,-3.2597 3.178,-3.2597 z"
         style="font-style:normal;font-variant:normal;font-weight:normal;font-stretch:normal;font-size:12px;line-height:125%;font-family:'Nexa Light';-inkscape-font-specification:'Nexa Light';letter-spacing:0px;word-spacing:0px;fill:#000000;fill-opacity:1;stroke:none" />
      <path
         inkscape:export-ydpi="180.31598"
         inkscape:export-xdpi="180.31598"
         inkscape:export-filename="C:\Zdjęcia\2014\01.31 - cmentarz żydowski w Katowicach\sprzątanko\levels\logo.png"
         d="m 1092.197,350.9854 c 6.1,0 12.039,-1.1915 17.819,-3.5633 5.779,-2.3723 10.549,-5.9107 14.311,-10.6152 l -5.279,-4.1788 c -2.948,3.666 -6.895,6.4456 -11.842,8.3391 -4.947,1.8936 -9.95,2.8451 -15.009,2.8544 -7.901,-0.062 -14.689,-2.4439 -20.365,-7.1639 -5.675,-4.7198 -8.994,-11.4359 -9.956,-20.1483 l 67.128,0 c 1.031,-14.3307 -2.125,-24.8463 -9.466,-31.5469 -7.341,-6.7004 -16.455,-10.015 -27.341,-9.9434 -10.751,0.2049 -19.683,3.7871 -26.795,10.7457 -7.112,6.9585 -10.801,16.0626 -11.068,27.312 0.267,11.831 3.956,21.078 11.068,27.7412 7.112,6.6632 16.044,10.0524 26.795,10.1674 z m -30.321,-40.8935 c 1.028,-9.0823 4.366,-16.0657 10.013,-20.9505 5.647,-4.8846 12.417,-7.3534 20.308,-7.4063 9.101,0.049 16.354,2.4936 21.76,7.3503 5.405,4.8568 8.208,11.8589 8.409,21.0065 z"
         style="font-style:normal;font-variant:normal;font-weight:normal;font-stretch:normal;font-size:12px;line-height:125%;font-family:'Nexa Light';-inkscape-font-specification:'Nexa Light';letter-spacing:0px;word-spacing:0px;fill:#000000;fill-opacity:1;stroke:none"
         id="path3251"
         inkscape:connector-curvature="0" />
      <path
         inkscape:export-ydpi="180.31598"
         inkscape:export-xdpi="180.31598"
         inkscape:export-filename="C:\Zdjęcia\2014\01.31 - cmentarz żydowski w Katowicach\sprzątanko\levels\logo.png"
         d="m 1157.93,253.6884 0,21.7222 -15.839,0 0,6.1847 15.839,0 0,45.4052 c -0.117,7.4011 1.399,13.2276 4.544,17.4797 3.146,4.2519 8.621,6.4204 16.424,6.5052 2.338,-0.014 4.676,-0.3621 7.014,-1.0371 2.338,-0.675 4.677,-1.587 7.015,-2.7341 l -2.565,-6.0339 c -1.901,0.9176 -3.831,1.6468 -5.788,2.1873 -1.958,0.5406 -3.85,0.8171 -5.676,0.8297 -5.654,-0.087 -9.394,-1.6877 -11.219,-4.8084 -1.826,-3.1205 -2.662,-7.2501 -2.508,-12.3884 l 0,-45.4052 25.342,0 0,-6.1847 -25.342,0 0,-22.4764 z"
         style="font-style:normal;font-variant:normal;font-weight:normal;font-stretch:normal;font-size:12px;line-height:125%;font-family:'Nexa Light';-inkscape-font-specification:'Nexa Light';letter-spacing:0px;word-spacing:0px;fill:#000000;fill-opacity:1;stroke:none"
         id="path3253"
         inkscape:connector-curvature="0" />
    </g>
  </g>
</svg>
